# xmcd
#
# Track frame offsets: 
#        150
#        11147
#        20935
#        36790
#        50057
#        65352
#        80722
#        95442
#        110167
#        123992
#        137662
#        152290
#        163177
#        178707
#        192062
#        207950
#        224065
#        233780
#        243445
#        257950
#
# Disc length: 3631 seconds
#
# Revision: 0
# Processed by: cddbd v1.5.2PL0 Copyright (c) Steve Scherf et al.
# Submitted via: ExactAudioCopy v0.95b3
#
DISCID=280e2d14
DTITLE=Bryan Smith - Robin's Return The Best Of Bryan Smith And His Ha
DTITLE=ppy Piano Vol 2
DYEAR=1994
DGENRE=Sequence
TTITLE0=Robin's Return
TTITLE1=Last Orders Please
TTITLE2=Underneath The Arches, Strollin', Down Forget-Me-Not Lane
TTITLE3=Birth Of The Blues
TTITLE4=Fascination, Ramona, Wonderful One
TTITLE5=Around The World, It Happened In Monteray, I Wonder Who's Kiss
TTITLE5=ing Her Now
TTITLE6=Il Gondolier
TTITLE7=Hawaiian Wedding Song
TTITLE8=I Left My Heart In San Francisco
TTITLE9=Oh Mein Papa
TTITLE10=The Rivers Of Babylon
TTITLE11=El Cumbancero
TTITLE12=Apple Blossom Time, Mexicali Rose, Let Me Call You Sweetheart
TTITLE13=Shades Of Gold
TTITLE14=A Fine Romance, I'm In The Mood For Love, Down Sweetheart Ave
TTITLE14=nue
TTITLE15=Miss You, How Wonderful To Know, On A Slow Boat To China
TTITLE16=You're Just In Love
TTITLE17=Good Morning, When My Dreamboat Comes Home, Should I
TTITLE18=Green Eyes
TTITLE19=Sway
EXTD=
EXTT0=
EXTT1=
EXTT2=
EXTT3=
EXTT4=
EXTT5=
EXTT6=
EXTT7=
EXTT8=
EXTT9=
EXTT10=
EXTT11=
EXTT12=
EXTT13=
EXTT14=
EXTT15=
EXTT16=
EXTT17=
EXTT18=
EXTT19=
PLAYORDER=
